<?xml version="1.0" encoding="UTF-8" standalone="no"?>
<!-- Created with Inkscape (http://www.inkscape.org/) -->

<svg
   width="58.605202mm"
   height="58.605209mm"
   viewBox="0 0 58.605202 58.605209"
   version="1.1"
   id="svg1"
   xml:space="preserve"
   xmlns:inkscape="http://www.inkscape.org/namespaces/inkscape"
   xmlns:sodipodi="http://sodipodi.sourceforge.net/DTD/sodipodi-0.dtd"
   xmlns="http://www.w3.org/2000/svg"
   xmlns:svg="http://www.w3.org/2000/svg"><sodipodi:namedview
     id="namedview1"
     pagecolor="#ffffff"
     bordercolor="#000000"
     borderopacity="0.25"
     inkscape:showpageshadow="2"
     inkscape:pageopacity="0.0"
     inkscape:pagecheckerboard="0"
     inkscape:deskcolor="#d1d1d1"
     inkscape:document-units="mm"
     inkscape:zoom="3.8954759"
     inkscape:cx="142.21626"
     inkscape:cy="389.04105"
     inkscape:window-width="2400"
     inkscape:window-height="1261"
     inkscape:window-x="-9"
     inkscape:window-y="-9"
     inkscape:window-maximized="1"
     inkscape:current-layer="layer1"><inkscape:page
       x="0"
       y="0"
       width="58.605202"
       height="58.605209"
       id="page2"
       margin="0"
       bleed="0" /></sodipodi:namedview><defs
     id="defs1"><filter
       inkscape:collect="always"
       style="color-interpolation-filters:sRGB"
       id="filter10"
       x="-0.1292105"
       y="-0.1292105"
       width="1.258421"
       height="1.258421"><feGaussianBlur
         inkscape:collect="always"
         stdDeviation="3.0716224"
         id="feGaussianBlur10" /></filter></defs><g
     inkscape:label="Lag 1"
     inkscape:groupmode="layer"
     id="layer1"
     transform="translate(-17.472087,-70.627723)"><g
       id="g7"
       transform="matrix(1.0666667,0,0,1.0952381,77.518669,-3.5512792)"
       style="mix-blend-mode:normal;filter:url(#filter10)"><circle
         style="fill:#4d4d4d;fill-opacity:0.67931;stroke-width:0.264583"
         id="path9"
         cx="-32.873604"
         cy="95.768135"
         r="28.526682" /></g><g
       id="g10"><circle
         cx="46.774693"
         cy="99.930328"
         r="29.104166"
         fill="#f4f7f2"
         stroke="#dde6d8"
         stroke-width="0.396875"
         id="circle1" /><path
         d="M 28.783026,109.9845 A 20.6375,20.6375 0 0 1 43.864276,79.557414"
         fill="none"
         stroke="#98b53c"
         stroke-width="4.23333"
         stroke-linecap="round"
         id="path1" /><g
         id="g9"><path
           d="m 64.766359,110.77825 a 20.6375,20.6375 0 0 1 -34.660416,1.5875"
           fill="none"
           stroke="#387ab1"
           stroke-width="4.23333"
           stroke-linecap="round"
           id="path3" /><polygon
           points="11,8 0,-15 -11,8 "
           fill="#387ab1"
           transform="matrix(0.29557188,-0.16655679,0.16655679,0.29557188,28.804998,109.7907)"
           id="polygon3" /></g><path
         d="M 47.039276,79.292831 A 20.6375,20.6375 0 0 1 65.824692,107.86783"
         fill="none"
         stroke="#074e84"
         stroke-width="4.23333"
         stroke-linecap="round"
         id="path2" /><polygon
         points="0,-15 -11,8 11,8 "
         fill="#98b53c"
         transform="matrix(0.04333126,0.30831797,-0.30831797,0.04333126,45.121002,79.306538)"
         id="polygon1" /><polygon
         points="-11,8 11,8 0,-15 "
         fill="#074e84"
         transform="matrix(-0.2762531,-0.1116135,0.1116135,-0.2762531,65.080142,109.78101)"
         id="polygon2" /><g
         id="g6"
         transform="matrix(1.4520883,-0.1557792,0.16573663,1.3648471,-39.062565,-27.670253)"><g
           id="g4"><g
             id="g3"><g
               id="g2"><g
                 transform="matrix(0.26458333,0,0,0.26458333,40.689276,88.817831)"
                 stroke="#1a1a1a"
                 stroke-width="4.5"
                 fill="none"
                 stroke-linejoin="round"
                 stroke-linecap="round"
                 id="g5"><!-- Bottle neck top --><rect
                   x="8"
                   y="0"
                   width="12"
                   height="7"
                   rx="2"
                   id="rect3" /><!-- Neck --><path
                   d="M 8,7 Q 6,14 4,20 v 50 q 0,6 6,6 h 8 q 6,0 6,-6 V 20 Q 22,14 20,7"
                   id="path4" /><!-- Waist squeeze hint --><path
                   d="m 5,52 q 9,-4 18,0"
                   stroke-width="3"
                   id="path5" /></g></g></g></g></g><g
         id="g1"
         transform="matrix(1.1993017,0.19885796,-0.18921792,1.2604022,7.968129,-34.36474)"><path
           d="M 50.306568,91.428167 51.364901,106.774 q 0.132292,1.32292 2.116667,1.32292 1.984375,0 2.116666,-1.32292 l 1.058334,-15.345833 z"
           id="path6"
           style="fill:none;stroke:#1a1a1a;stroke-width:1.19062;stroke-linecap:round;stroke-linejoin:round" /><line
           x1="50.306568"
           y1="91.428169"
           x2="56.656567"
           y2="91.428169"
           id="line6"
           style="fill:none;stroke:#1a1a1a;stroke-width:1.19062;stroke-linecap:round;stroke-linejoin:round" /><path
           d="m 51.100318,93.867166 h 4.7625"
           stroke-width="0.79375"
           id="path7"
           style="fill:none;stroke:#1a1a1a;stroke-linecap:round;stroke-linejoin:round" /></g></g></g></svg>
